# Blender v2.78 (sub 0) OBJ File: 'untitled.blend'
# www.blender.org
mtllib skybox.mtl
o Cube
v 1.000000 -1.000000 -1.000000
v 1.000000 -1.000000 1.000000
v -1.000000 -1.000000 1.000000
v -1.000000 -1.000000 -1.000000
v 1.000000 1.000000 -1.000000
v 1.000000 1.000000 1.000000
v -1.000000 1.000000 1.000000
v -1.000000 1.000000 -1.000000
vt 0.3350 0.3317
vt 0.6650 0.0017
vt 0.6650 0.3317
vt 0.3350 0.0017
vt 0.9983 0.3317
vt 0.6683 0.0017
vt 0.9983 0.0017
vt 0.6683 0.3317
vt 0.3315 0.6648
vt 0.0018 0.3352
vt 0.3315 0.3352
vt 0.0018 0.6648
vt 0.6667 0.3333
vt 0.3333 0.6667
vt 0.3333 0.3333
vt 0.6667 0.6667
vt 0.0017 0.0017
vt 0.3317 0.3317
vt 0.0017 0.3317
vt 0.3317 0.0017
vt 0.3317 0.6683
vt 0.0017 0.9983
vt 0.0017 0.6683
vt 0.3317 0.9983
vn 1.0000 -0.0000 0.0000
vn -1.0000 -0.0000 -0.0000
vn -0.0050 1.0000 0.0000
vn -0.0050 0.0000 -1.0000
vn -0.0050 -0.0000 1.0000
vn -0.0050 -1.0000 0.0000
usemtl front
s off
f 5/1/1 2/2/1 1/3/1
f 5/1/1 6/4/1 2/2/1
usemtl back
f 3/5/2 8/6/2 4/7/2
f 3/5/2 7/8/2 8/6/2
usemtl top
f 8/9/3 6/10/3 5/11/3
f 8/9/3 7/12/3 6/10/3
usemtl right
f 1/13/4 8/14/4 5/15/4
f 1/13/4 4/16/4 8/14/4
usemtl left
f 6/17/5 3/18/5 2/19/5
f 6/17/5 7/20/5 3/18/5
usemtl bottom
f 2/21/6 4/22/6 1/23/6
f 2/21/6 3/24/6 4/22/6
